<svg xmlns="http://www.w3.org/2000/svg" viewBox="0 0 320 427"><defs><linearGradient id="sky" x1="0" y1="0" x2="0" y2="1"><stop stop-color="#9bd4ff"/><stop offset=".55" stop-color="#e7f5ff"/><stop offset="1" stop-color="#a3a3a3"/></linearGradient><linearGradient id="truck" x1="0" y1="0" x2="1" y2="1"><stop stop-color="#f8fafc"/><stop offset="1" stop-color="#cbd5e1"/></linearGradient></defs><rect width="320" height="427" fill="url(#sky)"/><path d="M0 268h320v159H0z" fill="#737373"/><path d="M0 286c70-20 145-22 320 0v141H0z" fill="#525252" opacity=".35"/><g transform="translate(42 62)"><rect x="10" y="18" width="230" height="215" rx="6" fill="url(#truck)"/><rect x="32" y="42" width="186" height="145" rx="3" fill="#1f2937"/><rect x="42" y="52" width="166" height="122" fill="#334155"/><path d="M42 52h166v22H42z" fill="#64748b"/><rect x="62" y="112" width="70" height="58" fill="#bd8b55"/><rect x="124" y="82" width="70" height="74" fill="#c79861"/><rect x="77" y="62" width="74" height="48" fill="#a9825a"/><rect x="156" y="132" width="44" height="38" fill="#d0a46f"/><rect x="139" y="102" width="36" height="10" fill="#f1e4cf" opacity=".75"/><rect x="78" y="78" width="34" height="8" fill="#f1e4cf" opacity=".7"/><rect x="0" y="230" width="252" height="24" fill="#e5e7eb"/><rect x="20" y="252" width="210" height="16" fill="#9ca3af"/><circle cx="54" cy="285" r="20" fill="#111827"/><circle cx="194" cy="285" r="20" fill="#111827"/><circle cx="54" cy="285" r="8" fill="#9ca3af"/><circle cx="194" cy="285" r="8" fill="#9ca3af"/></g><g opacity=".45"><rect x="0" y="42" width="40" height="210" fill="#f8fafc"/><rect x="278" y="68" width="42" height="198" fill="#e5e7eb"/><path d="M0 70h40M0 102h40M0 134h40M278 98h42M278 132h42M278 166h42" stroke="#94a3b8" stroke-width="3"/></g></svg>